<?xml version="1.0" standalone="no"?><!DOCTYPE svg PUBLIC "-//W3C//DTD SVG 1.1//EN" "http://www.w3.org/Graphics/SVG/1.1/DTD/svg11.dtd"><svg t="1616484138548" class="icon" viewBox="0 0 1024 1024" version="1.1" xmlns="http://www.w3.org/2000/svg" p-id="3521" xmlns:xlink="http://www.w3.org/1999/xlink" width="64" height="64"><defs><style type="text/css"></style></defs><path d="M513.408 0v96H128a32 32 0 0 0-32 32v768a32 32 0 0 0 32 32h768a32 32 0 0 0 32-32V519.936H1024V896a128 128 0 0 1-128 128H128a128 128 0 0 1-128-128V128a128 128 0 0 1 128-128h385.408z" fill="#13CBB9" p-id="3522"></path><path d="M935.488 34.048l69.696 66.048-589.696 622.08-69.696-65.984z" fill="#13CBB9" p-id="3523"></path></svg>