<?xml version="1.0" standalone="no"?><!DOCTYPE svg PUBLIC "-//W3C//DTD SVG 1.1//EN" "http://www.w3.org/Graphics/SVG/1.1/DTD/svg11.dtd"><svg t="1616400493740" class="icon" viewBox="0 0 1154 1024" version="1.1" xmlns="http://www.w3.org/2000/svg" p-id="6031" xmlns:xlink="http://www.w3.org/1999/xlink" width="288.5" height="256"><defs><style type="text/css"></style></defs><path d="M1018.509617 135.778043C893.71234 18.19234 706.516426 10.348936 581.719149 127.934638 449.14383 10.348936 261.969702 18.19234 137.172426 135.778043 12.375149 261.228936 12.375149 457.183319 137.172426 582.590638L503.720851 951.012766a98.500085 98.500085 0 0 0 140.396936 0L1010.709787 582.590638c132.597106-117.585702 132.597106-321.383489 7.79983-446.812595zM971.710638 535.573787l-366.570212 368.422128c-15.59966 15.686809-31.199319 15.686809-46.798979 0L183.971404 535.573787c-101.397787-94.077277-101.397787-258.701617 0-352.757106 93.57617-94.077277 249.572766-94.077277 350.970553-7.843404l46.798979 39.195234 46.798979-39.195234c101.397787-94.055489 249.572766-86.233872 350.970553 7.843404 85.798128 101.898894 85.798128 258.67983-7.79983 352.735319z" fill="#8a8a8a" p-id="6032"></path></svg>